<svg xmlns="http://www.w3.org/2000/svg" fill="none" viewBox="0 0 120 100" height="100" width="120">
<mask height="100" width="120" y="0" x="0" maskUnits="userSpaceOnUse" style="mask-type:luminance" id="mask0_1432_2">
<path fill="white" d="M119.792 0H0V100H119.792V0Z"></path>
</mask>
<g mask="url(#mask0_1432_2)">
<path fill="black" d="M37.967 58.1949V37.8997C38.8178 37.8187 39.5977 37.7074 40.3065 37.5655C41.0153 37.4237 41.6535 37.2517 42.2207 37.049H42.1598C43.9018 36.4009 45.4007 35.4084 46.6563 34.0715C46.859 33.869 46.9805 33.7272 47.021 33.6462C49.33 31.2157 50.4847 28.2787 50.4847 24.8354V12.6217H32.9843V58.1949H37.967ZM27.941 58.1954V53.2127H18.5832V34.8617H27.941V29.8789H18.5832V17.6045H27.941V12.6218H13.6005V58.1954H27.941ZM45.502 17.605H37.9672V32.9177C39.142 32.7557 40.185 32.4519 41.0965 32.0062C42.008 31.5607 42.7473 31.0137 43.3145 30.3657C43.9625 29.6364 44.4892 28.7959 44.8943 27.8439C45.2993 26.8919 45.502 25.8894 45.502 24.836V17.605ZM72.9677 58.1949V12.6217H55.4672V58.1949H72.9677ZM60.45 53.2132H67.9848V17.605H60.45V53.2132Z" clip-rule="evenodd" fill-rule="evenodd"></path>
<path fill="black" d="M118.998 0V100H100.464V12.4694H105.716L105.715 94.749H113.747V5.25125H5.25125V94.749H81.7772V12.4468H87.0282V100H0V0H118.998Z"></path>
<path fill="black" d="M86.964 22.0402L91.339 29.7574H96.3219L100.697 22.0402L105.68 12.6217H100.454C99.4005 14.4446 98.2864 16.379 97.112 18.4247C95.937 20.4704 94.8432 22.3644 93.8302 24.1062L87.2072 12.6217H81.9812L86.964 22.0402Z" clip-rule="evenodd" fill-rule="evenodd"></path>
<path fill="black" d="M14.9957 86.6682V67.4802L17.3175 71.576V86.6682H19.962V71.576L22.2839 67.4802V86.6682H24.9284V62.4817H22.1549C21.5959 63.4489 21.0047 64.4755 20.3812 65.5614C19.7577 66.6474 19.1772 67.652 18.6399 68.5765L15.1247 62.4817H12.3513V86.6682H14.9957ZM30.1525 86.6682V75.9292H34.1514V86.6682H36.7959V62.4817H27.5082V86.6682H30.1525ZM30.1525 73.2849H34.1514V65.126H30.1525V73.2849ZM42.0845 86.6682V78.4125L44.3097 74.1234L47.7604 86.6682H50.4694C49.7814 84.0885 49.0504 81.4224 48.2764 78.6702C47.5024 75.9187 46.7714 73.2525 46.0835 70.6729L50.3402 62.4817H47.3734L42.0845 72.6724V62.4817H39.4402V86.6682H42.0845ZM60.8214 84.0239V86.6682H53.2105V62.4817H60.8214V65.126H55.8547V71.64H60.8214V74.2849H55.8547V84.0239H60.8214ZM66.1422 86.6682V75.8974C66.5505 75.8542 66.9594 75.7844 67.3677 75.6875C67.776 75.5905 68.1844 75.4885 68.5934 75.3812C69.0662 75.9834 69.4422 76.628 69.7219 77.316C70.001 78.0042 70.1412 78.6599 70.1412 79.2834V86.6682H72.7855V79.2834C72.7855 78.3802 72.6079 77.4667 72.2532 76.5422C71.8985 75.6177 71.4094 74.7042 70.786 73.801C71.4309 73.113 71.9255 72.3604 72.2694 71.5437C72.6135 70.7265 72.7855 69.8667 72.7855 68.9635V62.4817H63.498V86.6682H66.1422ZM66.1422 65.126V73.2525C66.7657 73.1667 67.3194 73.0057 67.8032 72.7692C68.2865 72.5327 68.6792 72.2422 68.9802 71.8984C69.324 71.5114 69.6037 71.065 69.8189 70.5599C70.0334 70.0547 70.1412 69.5229 70.1412 68.9635V65.126H66.1422Z" clip-rule="evenodd" fill-rule="evenodd"></path>
</g>
</svg>
